<?xml version="1.0" encoding="utf-8"?>
<!-- Generator: Adobe Illustrator 16.0.0, SVG Export Plug-In . SVG Version: 6.00 Build 0)  -->
<!DOCTYPE svg PUBLIC "-//W3C//DTD SVG 1.1//EN" "http://www.w3.org/Graphics/SVG/1.1/DTD/svg11.dtd">
<svg version="1.1" id="Calque_1" xmlns="http://www.w3.org/2000/svg" xmlns:xlink="http://www.w3.org/1999/xlink" x="0px" y="0px"
	 width="50px" height="50px" viewBox="0 0 50 50" enable-background="new 0 0 50 50" xml:space="preserve">
<g>
	<path fill-rule="evenodd" clip-rule="evenodd" fill="#FECB4D" d="M42.015,43.137c-3.362,3.54-7.497,5.652-12.242,6.651
		c-0.594,0.125-1.239,0.06-1.772,0.435c-1.926,0-3.852,0-5.778,0c-0.815-0.474-1.761-0.426-2.638-0.659
		c-4.187-1.116-7.93-3.001-10.925-6.209c-0.353-5.035,1.045-9.423,4.836-13.222c0.051,1.256,0.205,2.23,0.535,3.16
		c0.6,1.688,1.71,2.485,3.392,2.494c3.591,0.018,6.674-3.02,6.808-6.676c0.065-1.789-0.158-3.53-0.677-5.24
		c-0.06-0.199-0.261-0.414-0.094-0.619c0.176-0.218,0.4-0.062,0.604,0.014c2.811,1.054,5.02,2.815,6.331,5.555
		c0.874,1.827,1.076,3.818,1.164,5.813c0.1,2.263,1.029,3.672,2.796,4.18c1.413,0.405,3.353-0.481,4.494-1.989
		c0.62-0.819,0.624-1.823,0.869-2.772c0.349,0.167,0.417,0.428,0.53,0.653c1.042,2.081,1.583,4.274,1.566,6.613
		C41.81,41.921,41.577,42.574,42.015,43.137z"/>
	<path fill-rule="evenodd" clip-rule="evenodd" fill="#F3900D" d="M42.015,43.137c-0.438-0.563-0.205-1.216-0.2-1.817
		c0.017-2.339-0.524-4.532-1.566-6.613c-0.113-0.226-0.182-0.486-0.53-0.653c-0.245,0.949-0.249,1.953-0.869,2.772
		c-1.142,1.508-3.081,2.395-4.494,1.989c-1.767-0.508-2.696-1.917-2.796-4.18c-0.088-1.995-0.29-3.986-1.164-5.813
		c-1.311-2.74-3.52-4.501-6.331-5.555c-0.203-0.076-0.427-0.232-0.604-0.014c-0.167,0.205,0.034,0.42,0.094,0.619
		c0.519,1.71,0.742,3.451,0.677,5.24c-0.134,3.656-3.217,6.693-6.808,6.676c-1.682-0.009-2.792-0.806-3.392-2.494
		c-0.33-0.93-0.484-1.904-0.535-3.16c-3.791,3.799-5.189,8.187-4.836,13.222c-3.54-3.319-5.675-7.43-6.579-12.146
		C0.792,24.491,2.17,18.306,6.142,12.717c0.128-0.18,0.266-0.354,0.408-0.524c0.043-0.052,0.117-0.078,0.273-0.177
		c0.181,0.88-0.178,1.657-0.263,2.449c-0.187,1.742-0.209,3.469,0.33,5.157c0.816,2.559,2.769,3.758,5.16,3.189
		c2.452-0.583,3.792-2.695,3.337-5.309c-0.144-0.829-0.366-1.644-0.552-2.465c0.041-0.332,0.167-0.696-0.326-0.813
		c-0.026-0.221-0.051-0.442-0.077-0.663c0.355-0.329,0.304-0.554-0.171-0.671c-0.102-1.039-0.135-2.078,0.021-3.115
		c0.31-0.066,0.49-0.175,0.144-0.451c0.243-2.037,1.15-3.731,2.641-5.125c0.753,0.364,0.379,1.066,0.5,1.625
		c0.11,0.507-0.38,1.182,0.4,1.51c0.014,0.146,0.028,0.294,0.042,0.441c-0.289,0.516-0.106,0.869,0.386,1.115
		c0.018,0.072,0.035,0.144,0.053,0.215c0.045,0.072,0.091,0.144,0.136,0.215c0.636,1.258,1.545,2.263,2.764,2.98
		c0.073,0.047,0.146,0.094,0.219,0.142c0.075,0.025,0.149,0.05,0.225,0.074c0.08,0.047,0.16,0.094,0.24,0.142
		c0.07-0.019,0.134-0.007,0.192,0.037c0.056,0.303,0.142,0.53,0.452,0.174c3.788,0.198,5.75-0.991,6.657-4.062
		c0.53-1.796,0.367-3.588-0.166-5.35c-0.283-0.937-0.647-1.848-1.074-3.047c4.754,2.633,8.378,5.798,9.262,11.245
		c0.501,3.088,0.096,6.108-0.554,9.124c-0.232,1.082-0.384,2.181-0.351,3.299c0.046,1.545,0.354,2.985,1.846,3.778
		c1.666,0.887,3.346,0.805,4.934-0.248c1.477-0.978,2.351-2.423,3.011-4.017c0.625-1.511,0.943-3.1,1.135-4.743
		C50.212,25.488,49.123,36.18,42.015,43.137z"/>
	<path fill-rule="evenodd" clip-rule="evenodd" fill="#F39111" d="M17.965,7.334c-0.78-0.328-0.29-1.002-0.4-1.51
		c-0.121-0.559,0.253-1.261-0.5-1.625c0.24-0.27,0.481-0.539,0.722-0.809C17.928,4.756,17.768,6.049,17.965,7.334z"/>
	<path fill-rule="evenodd" clip-rule="evenodd" fill="#F39111" d="M18.394,8.89c-0.492-0.246-0.675-0.599-0.386-1.115
		C18.136,8.146,18.265,8.518,18.394,8.89z"/>
	<path fill-rule="evenodd" clip-rule="evenodd" fill="#F38B05" d="M14.261,12.891c0.475,0.117,0.526,0.342,0.171,0.671
		C14.289,13.36,14.227,13.137,14.261,12.891z"/>
	<path fill-rule="evenodd" clip-rule="evenodd" fill="#F38B05" d="M14.508,14.225c0.493,0.116,0.367,0.481,0.326,0.813
		C14.558,14.833,14.584,14.508,14.508,14.225z"/>
	<path fill-rule="evenodd" clip-rule="evenodd" fill="#F38B05" d="M14.425,9.325c0.346,0.276,0.166,0.384-0.144,0.451
		C14.329,9.625,14.377,9.475,14.425,9.325z"/>
	<path fill-rule="evenodd" clip-rule="evenodd" fill="#F39111" d="M22.674,12.868c-0.31,0.356-0.396,0.129-0.452-0.174
		C22.373,12.752,22.523,12.811,22.674,12.868z"/>
	<path fill-rule="evenodd" clip-rule="evenodd" fill="#F39111" d="M18.583,9.32c-0.045-0.072-0.091-0.144-0.136-0.215
		C18.492,9.176,18.537,9.248,18.583,9.32z"/>
	<path fill-rule="evenodd" clip-rule="evenodd" fill="#F39111" d="M21.566,12.441c-0.073-0.047-0.146-0.095-0.219-0.142
		C21.42,12.347,21.493,12.394,21.566,12.441z"/>
	<path fill-rule="evenodd" clip-rule="evenodd" fill="#F39111" d="M22.03,12.657c-0.08-0.047-0.16-0.094-0.24-0.142
		C21.87,12.563,21.95,12.61,22.03,12.657z"/>
</g>
</svg>
